<svg preserveAspectRatio="none" overflow="visible" style="display: block;" width="24.3" height="25.1631" viewBox="0 0 24.3 25.1631" fill="none" xmlns="http://www.w3.org/2000/svg">
<g id="graph-bar-increase--up-product-performance-increase-arrow-graph-business-chart">
<path id="Union" fill-rule="evenodd" clip-rule="evenodd" d="M17.5449 0.397028C17.9311 0.00958426 18.5128 -0.10653 19.0181 0.102997L22.8481 1.69108C23.5341 1.97554 23.8615 2.76066 23.5809 3.44824L22.0183 7.27718C21.8119 7.78307 21.3206 8.11462 20.7743 8.11705C20.2279 8.11949 19.7339 7.79233 19.523 7.28829L18.9047 5.81105L3.35669 12.4564C2.67111 12.7494 1.87778 12.4312 1.58476 11.7456C1.29173 11.06 1.60996 10.2667 2.29556 9.97364L17.8623 3.32032L17.2557 1.87126C17.0445 1.36665 17.1587 0.784472 17.5449 0.397028ZM22.5 9.86315C22.9774 9.86315 23.4353 10.0528 23.7728 10.3904C24.1103 10.7279 24.3 11.1858 24.3 11.6632V24.2631C24.3 24.7603 23.897 25.1631 23.4 25.1631H18.9C18.403 25.1631 18 24.7603 18 24.2631V11.6632C18 11.1858 18.1897 10.7279 18.5272 10.3904C18.8647 10.0528 19.3226 9.86315 19.8 9.86315H22.5ZM14.7728 13.0904C14.4352 12.7528 13.9774 12.5632 13.5 12.5632H10.8C10.3226 12.5632 9.86477 12.7528 9.5272 13.0904C9.18965 13.4279 9 13.8858 9 14.3632V24.2631C9 24.7603 9.40295 25.1631 9.9 25.1631H14.4C14.8971 25.1631 15.3 24.7603 15.3 24.2631V14.3632C15.3 13.8858 15.1104 13.4279 14.7728 13.0904ZM4.5 15.2632C4.9774 15.2632 5.43523 15.4528 5.7728 15.7904C6.11035 16.1279 6.3 16.5858 6.3 17.0632V24.2631C6.3 24.7603 5.89705 25.1631 5.4 25.1631H0.9C0.402944 25.1631 0 24.7603 0 24.2631V17.0632C0 16.5858 0.189641 16.1279 0.527207 15.7904C0.864774 15.4528 1.32261 15.2632 1.8 15.2632H4.5Z" fill="#051137"/>
</g>
</svg>
