<svg preserveAspectRatio="none" overflow="visible" style="display: block;" width="30.9334" height="40.7102" viewBox="0 0 30.9334 40.7102" fill="none" xmlns="http://www.w3.org/2000/svg">
<g id="Layer_2" clip-path="url(#clip0_0_28)">
<path id="shield" d="M19.4058 28.8037C17.6085 30.4294 15.5249 31.8375 13.3096 33.0396C6.56083 29.3589 1.03701 23.8351 1.03701 15.8556V6.01008C1.03701 5.34035 1.52357 4.77366 2.18757 4.67635C5.40455 4.20697 9.01649 2.87897 12.6513 0.881233C13.0635 0.65799 13.5558 0.65799 13.9679 0.881233C17.6027 2.87897 21.2147 4.20697 24.4317 4.67635C25.0957 4.77366 25.5822 5.34035 25.5822 6.01008V15.8556C25.5822 18.4315 25.0098 20.7498 24.0023 22.8334" stroke="white" stroke-width="1.69993" stroke-miterlimit="10" stroke-linecap="round"/>
<path id="Vector" d="M28.449 33.5892C27.4874 33.366 26.4914 33.2973 25.5011 33.3087C22.9481 33.3316 20.8187 34.0071 18.7008 35.2606C16.7374 36.4169 14.734 37.7163 12.3641 38.0311C10.3092 38.3002 8.2771 37.6247 6.58274 36.6116C4.83115 35.564 2.77045 34.4879 0.641064 35.2835C0.457891 35.3522 0.268994 35.4152 0.097269 35.5068C0.0457515 35.5354 -0.0572834 35.6155 0.062924 35.5927C0.457891 35.5068 0.881479 35.5182 1.28217 35.5526C1.64852 35.5869 2.00342 35.6556 2.35259 35.7587C2.70176 35.8617 3.01087 35.9876 3.3257 36.1422C3.64053 36.2967 3.93818 36.4742 4.22439 36.6631C4.5106 36.852 4.80253 37.0638 5.08301 37.2756C5.3635 37.4874 5.64398 37.7106 5.92447 37.9338C6.20495 38.1571 6.49116 38.3746 6.77737 38.5921C7.7562 39.3134 8.7751 40.0232 9.97717 40.3895C11.0762 40.7215 12.2554 40.7902 13.4059 40.6471C14.2817 40.5383 15.1346 40.3094 15.9418 39.9945C18.0196 39.1874 19.6052 37.6476 21.477 36.5371C23.0683 35.5927 24.8257 34.734 26.7318 34.4078C27.4874 34.2818 28.2544 34.1902 29.0272 34.2303C29.674 34.2646 30.2865 34.3849 30.8933 34.5966C30.9047 34.5966 30.9162 34.6024 30.9333 34.6081C30.9448 34.6081 30.9505 34.5966 30.9448 34.5909C30.6357 34.2189 28.8555 33.6922 28.4605 33.6006L28.449 33.5892Z" fill="white"/>
<g id="Group">
<path id="Vector_2" d="M9.15693 14.7735L10.2515 13.9433L14.0359 18.9327L12.9413 19.7629C12.467 20.1226 11.7888 20.0336 11.4256 19.5547L8.9453 16.2847C8.58554 15.8104 8.6746 15.1322 9.15347 14.7689L9.15693 14.7735Z" fill="white"/>
<path id="Vector_3" d="M17.8038 16.0866L16.7092 16.9168L12.9248 11.9274L14.0194 11.0972C14.4937 10.7374 15.1719 10.8265 15.5351 11.3054L18.0154 14.5754C18.3752 15.0497 18.2861 15.7279 17.8072 16.0911L17.8038 16.0866Z" fill="white"/>
<path id="Vector_4" d="M12.0673 13.5716L21.6782 26.3708" stroke="white" stroke-width="1.69993" stroke-miterlimit="10" stroke-linecap="round"/>
</g>
</g>
<defs>
<clipPath id="clip0_0_28">
<rect width="30.9334" height="40.7102" fill="white"/>
</clipPath>
</defs>
</svg>
